<svg xmlns="http://www.w3.org/2000/svg" xmlns:xlink="http://www.w3.org/1999/xlink" viewBox="0 0 1707.1 1675.38"><defs><style>.cls-1{isolation:isolate;}.cls-2{fill:#f9beb9;}.cls-3{fill:#ffd8a4;}.cls-4,.cls-8{fill:none;}.cls-5{opacity:0.15;fill:url(#radial-gradient);}.cls-5,.cls-6,.cls-7,.cls-8{mix-blend-mode:screen;}.cls-6{opacity:0.5;fill:url(#radial-gradient-2);}.cls-7{fill:url(#radial-gradient-3);}.cls-8{stroke:#fff;stroke-miterlimit:10;stroke-width:2px;opacity:0.03;}</style><radialGradient id="radial-gradient" cx="700.42" cy="271.32" r="294.69" gradientTransform="translate(-52.08 493.39) scale(1.29 1.27)" gradientUnits="userSpaceOnUse"><stop offset="0" stop-color="#230000"/><stop offset="0.73" stop-color="#93432a"/><stop offset="1" stop-color="#230000"/></radialGradient><radialGradient id="radial-gradient-2" cx="700.42" cy="271.32" r="147.34" gradientTransform="translate(-52.08 493.39) scale(1.29 1.27)" gradientUnits="userSpaceOnUse"><stop offset="0.15" stop-color="#fff"/><stop offset="0.21" stop-color="#e2d1d2"/><stop offset="0.29" stop-color="#bf9a9c"/><stop offset="0.36" stop-color="#a67276"/><stop offset="0.42" stop-color="#975a5e"/><stop offset="0.45" stop-color="#915155"/><stop offset="0.56" stop-color="#6c3638"/><stop offset="0.68" stop-color="#44191a"/><stop offset="0.79" stop-color="#2c0707"/><stop offset="0.85" stop-color="#230000"/><stop offset="0.86" stop-color="#270201"/><stop offset="0.86" stop-color="#340805"/><stop offset="0.87" stop-color="#48120b"/><stop offset="0.88" stop-color="#652114"/><stop offset="0.89" stop-color="#8b331f"/><stop offset="0.9" stop-color="#b8492d"/><stop offset="0.9" stop-color="#d65836"/><stop offset="0.9" stop-color="#c95232"/><stop offset="0.91" stop-color="#9d3c25"/><stop offset="0.93" stop-color="#782a1a"/><stop offset="0.94" stop-color="#591b10"/><stop offset="0.95" stop-color="#410f09"/><stop offset="0.97" stop-color="#300604"/><stop offset="0.98" stop-color="#260201"/><stop offset="1" stop-color="#230000"/></radialGradient><radialGradient id="radial-gradient-3" cx="700.42" cy="271.32" r="122.79" gradientTransform="translate(-52.08 493.39) scale(1.29 1.27)" gradientUnits="userSpaceOnUse"><stop offset="0.15" stop-color="#fff"/><stop offset="0.28" stop-color="#c2c2c2"/><stop offset="0.43" stop-color="#888"/><stop offset="0.56" stop-color="#575757"/><stop offset="0.69" stop-color="#313131"/><stop offset="0.81" stop-color="#161616"/><stop offset="0.92" stop-color="#060606"/><stop offset="1"/></radialGradient></defs><title>ฉาก</title><g class="cls-1"><g id="Layer_1" data-name="Layer 1"><rect class="cls-2" x="448.73" y="767.48" width="774.75" height="484.22"/><circle class="cls-3" cx="853.66" cy="893.98" r="105.92"/><line class="cls-4" x1="853.55" y1="837.69" x2="958.47" y2="993.75"/><ellipse class="cls-4" cx="853.55" cy="837.69" rx="158.76" ry="155.81"/><ellipse class="cls-4" cx="853.55" cy="837.69" rx="190.51" ry="186.97"/><polyline class="cls-4" points="853.55 837.69 1051.27 323.59 853.55 837.69 655.83 1351.79 853.55 837.69 1377.38 1031.73 853.55 837.69 329.72 643.64 853.55 837.69 938.69 653.47 853.55 837.69 768.41 1021.91 853.55 837.69 1041.25 921.25 853.55 837.69 665.84 754.13 853.55 837.69 1555.09 444.79 853.55 837.69 152.01 1230.59 853.55 837.69 1253.88 1526.19 853.55 837.69 453.21 149.19 853.55 837.69 1169.77 317.37 853.55 837.69 537.32 1358.01 853.55 837.69 1383.72 1148.04 853.55 837.69 323.38 527.34 853.55 837.69 862.2 788.02 853.55 837.69 844.9 887.35 853.55 837.69 904.15 846.18 853.55 837.69 802.94 829.2 853.55 837.69 891.12 795.68 853.55 837.69 815.98 879.7 853.55 837.69 896.35 874.56 853.55 837.69 810.75 800.82 853.55 837.69 1024.67 498.85 853.55 837.69 682.43 1176.53 853.55 837.69 1198.8 1005.63 853.55 837.69 508.3 669.75 853.55 837.69 1201.34 435.81 853.55 837.69 505.75 1239.57 853.55 837.69 1263.04 1179.02 853.55 837.69 444.06 496.36 853.55 837.69 785.98 474.01 853.55 837.69 921.11 1201.36 853.55 837.69 1224.11 771.38 853.55 837.69 482.99 904 853.55 837.69 898.46 800.08 853.55 837.69 808.63 875.3 853.55 837.69 891.87 881.77 853.55 837.69 815.23 793.61 853.55 837.69 870.11 0.02 853.55 837.69 836.98 1675.36 853.55 837.69 1707.08 853.95 853.55 837.69 0.02 821.43 853.55 837.69 1381.17 353.66 853.55 837.69 325.93 1321.72 853.55 837.69 1346.74 1355.51 853.55 837.69 360.36 319.87 853.55 837.69 1024.69 768.73 853.55 837.69 682.41 906.65 853.55 837.69 923.82 1005.65 853.55 837.69 783.28 669.73 853.55 837.69 1286.48 373.99 853.55 837.69 420.62 1301.39 853.55 837.69 1326.03 1262.57 853.55 837.69 381.06 412.81 853.55 837.69 1180.78 273.12 853.55 837.69 526.31 1402.26 853.55 837.69 1428.81 1158.84 853.55 837.69 278.29 516.53"/><ellipse class="cls-5" cx="853.55" cy="837.69" rx="381.02" ry="373.94"/><ellipse class="cls-6" cx="853.55" cy="837.69" rx="190.51" ry="186.97"/><ellipse class="cls-7" cx="853.55" cy="837.69" rx="158.76" ry="155.81"/><polyline class="cls-8" points="853.55 837.69 1051.27 323.59 853.55 837.69 655.83 1351.79 853.55 837.69 1377.38 1031.73 853.55 837.69 329.72 643.64 853.55 837.69 938.69 653.47 853.55 837.69 768.41 1021.91 853.55 837.69 1041.25 921.25 853.55 837.69 665.84 754.13 853.55 837.69 1555.09 444.79 853.55 837.69 152.01 1230.59 853.55 837.69 1253.88 1526.19 853.55 837.69 453.21 149.19 853.55 837.69 1169.77 317.37 853.55 837.69 537.32 1358.01 853.55 837.69 1383.72 1148.04 853.55 837.69 323.38 527.34 853.55 837.69 862.2 788.02 853.55 837.69 844.9 887.35 853.55 837.69 904.15 846.18 853.55 837.69 802.94 829.2 853.55 837.69 891.12 795.68 853.55 837.69 815.98 879.7 853.55 837.69 896.35 874.56 853.55 837.69 810.75 800.82 853.55 837.69 1024.67 498.85 853.55 837.69 682.43 1176.53 853.55 837.69 1198.8 1005.63 853.55 837.69 508.3 669.75 853.55 837.69 1201.34 435.81 853.55 837.69 505.75 1239.57 853.55 837.69 1263.04 1179.02 853.55 837.69 444.06 496.36 853.55 837.69 785.98 474.01 853.55 837.69 921.11 1201.36 853.55 837.69 1224.11 771.38 853.55 837.69 482.99 904 853.55 837.69 898.46 800.08 853.55 837.69 808.63 875.3 853.55 837.69 891.87 881.77 853.55 837.69 815.23 793.61 853.55 837.69 870.11 0.02 853.55 837.69 836.98 1675.36 853.55 837.69 1707.08 853.95 853.55 837.69 0.02 821.43 853.55 837.69 1381.17 353.66 853.55 837.69 325.93 1321.72 853.55 837.69 1346.74 1355.51 853.55 837.69 360.36 319.87 853.55 837.69 1024.69 768.73 853.55 837.69 682.41 906.65 853.55 837.69 923.82 1005.65 853.55 837.69 783.28 669.73 853.55 837.69 1286.48 373.99 853.55 837.69 420.62 1301.39 853.55 837.69 1326.03 1262.57 853.55 837.69 381.06 412.81 853.55 837.69 1180.78 273.12 853.55 837.69 526.31 1402.26 853.55 837.69 1428.81 1158.84 853.55 837.69 278.29 516.53"/></g></g></svg>